<svg width="82" height="67" viewBox="0 0 82 67" fill="none" xmlns="http://www.w3.org/2000/svg">
    <path d="M50.5728 5.48695V19.9353V25.3086L58.0534 30.9182H53.7755L50.5728 28.5165V36.5799H65.534V0L50.5728 5.48695Z" fill="url(#paint0_linear_210_78)"/>
    <path d="M49.617 19.9353V1.37256L34.6562 6.85951V19.9363V24.7287L42.2282 19.0509L49.617 24.5919V19.9353ZM34.6562 27.9406V36.5799H49.617V27.7998L42.2282 22.2583L34.6562 27.9406Z" fill="url(#paint1_linear_210_78)"/>
    <path d="M33.6605 19.936V2.74426L18.6992 8.23071V36.5796H33.6605V28.6879L30.6882 30.918H26.4026L33.6605 25.4755V19.936Z" fill="url(#paint2_linear_210_78)"/>
    <path d="M78.6781 43.0942L75.1803 48.1708L71.663 43.0942H68.853L74.0208 50.5871V57.3088H76.3199V50.5871L81.4882 43.0942H78.6781Z" fill="#0A2F4C"/>
    <path d="M68.0555 43.0942H59.999V45.2668H62.8877V57.3088H65.1668V45.2668H68.0555V43.0942Z" fill="#0A2F4C"/>
    <path d="M54.8854 54.932V43.0934H52.5867V57.308H59.975V54.932H54.8854Z" fill="#0A2F4C"/>
    <path d="M46.2787 48.6776L47.9487 53.6118H44.6087L46.2787 48.6776ZM49.3047 57.3078H51.7806L46.2787 42.6869L40.7964 57.3078H43.2723L43.8619 55.6633H48.6956L49.3047 57.3078Z" fill="#0A2F4C"/>
    <path d="M39.9895 45.4689V43.0934H30.813V57.308H39.9895V54.932H33.1122V51.3783H38.83V49.023H33.1122V45.4689H39.9895Z" fill="#0A2F4C"/>
    <path d="M30.0067 57.308L26.273 51.135C27.6089 50.7489 29.2989 49.7539 29.2989 47.2361C29.2989 43.0934 24.7011 43.0934 24.7011 43.0934H20.1224V45.4689L22.3038 49.023H20.1224V57.308H22.4215V51.3783H23.7379L27.3144 57.308H30.0067ZM22.8538 45.4689H24.7011C24.7011 45.4689 26.9998 45.4689 26.9998 47.2361C26.9998 48.6369 25.6048 48.9418 24.9957 49.0028L22.8538 45.4689Z" fill="#0A2F4C"/>
    <path d="M17.129 49.0841H11.7898V51.237H17.129V49.0841Z" fill="#0A2F4C"/>
    <path d="M5.48188 48.6777L7.15238 53.6119H3.81187L5.48188 48.6777ZM8.50832 57.3079H10.9843L5.48188 42.6869L0 57.3079H2.47547L3.06503 55.6633H7.89922L8.50832 57.3079Z" fill="#0A2F4C"/>
    <path d="M0 66.2361H0.316518L0.580768 65.4933H1.65731L1.92156 66.2361H2.24639L1.22259 63.4618H1.01549L0 66.2361ZM0.674064 65.233L0.954434 64.4357C1.03991 64.192 1.08485 64.0623 1.11709 63.9568H1.12539C1.15763 64.0623 1.19817 64.192 1.28365 64.4357L1.56011 65.233H0.674064ZM4.03851 66.2361H4.33891V63.7348H5.27771L5.371 63.4704H4.03851V66.2361ZM7.10988 66.2361H8.42626V65.9717H7.41077V64.9559H8.29243V64.6915H7.41077V63.7348H8.30464L8.40233 63.4704H7.10988V66.2361ZM10.381 66.2361H10.6814V64.9519H12.1482V66.2361H12.4447V63.4704H12.1482V64.6875H10.6814V63.4704H10.381V66.2361ZM15.0169 66.2361H15.3173V63.7348H16.0729L16.1706 63.4704H14.2491V63.7348H15.0169V66.2361ZM19.7461 65.8375C19.5634 65.9379 19.3563 66.0095 19.1082 66.0095C18.4986 66.0095 18.121 65.5433 18.121 64.8676C18.121 64.2298 18.523 63.7177 19.137 63.7177C19.4091 63.7177 19.6079 63.7853 19.7949 63.8897V63.5961C19.6606 63.5163 19.4169 63.4492 19.1326 63.4492C18.3403 63.4492 17.804 64.079 17.804 64.8888C17.804 65.6987 18.2793 66.278 19.0798 66.278C19.3236 66.278 19.5756 66.2235 19.8272 66.0847L19.7461 65.8375ZM22.1556 66.2361H22.456V63.7348H23.2121L23.3093 63.4704H21.3878V63.7348H22.1556V66.2361ZM25.0404 66.2361H25.7394C26.3324 66.2361 26.6494 65.9172 26.6494 65.4514C26.6494 65.1028 26.43 64.8469 26.1292 64.7798V64.7713C26.3485 64.6749 26.4828 64.4524 26.4828 64.1708C26.4828 63.7934 26.2308 63.4704 25.6622 63.4704H25.0404V66.2361ZM25.3413 65.9757V64.9519H25.776C26.117 64.9519 26.3407 65.1492 26.3407 65.4595C26.3407 65.8289 26.1008 65.9757 25.7394 65.9757H25.3413ZM25.3413 64.6915V63.7303H25.6461C26.0276 63.7303 26.1824 63.9276 26.1824 64.2046C26.1824 64.5109 25.9914 64.6915 25.6339 64.6915H25.3413ZM29.7574 66.278C30.4891 66.278 31.0615 65.7325 31.0615 64.8676C31.0615 64.0411 30.5174 63.4492 29.7574 63.4492C29.0061 63.4492 28.4532 64.0285 28.4532 64.8676C28.4532 65.7239 29.01 66.278 29.7574 66.278ZM29.7574 66.0095C29.1605 66.0095 28.7702 65.5519 28.7702 64.8676C28.7702 64.1834 29.1605 63.7177 29.7574 63.7177C30.3914 63.7177 30.745 64.2172 30.745 64.8676C30.745 65.5519 30.3547 66.0095 29.7574 66.0095ZM34.8363 66.2361H35.1367V64.9519H36.6035V66.2361H36.9V63.4704H36.6035V64.6875H35.1367V63.4704H34.8363V66.2361ZM38.9725 66.2361H40.2888V65.9717H39.2729V64.9559H40.1545V64.6915H39.2729V63.7348H40.1667L40.2644 63.4704H38.9725V66.2361ZM41.9506 67H42.247V66.2361H44.0553V67H44.3518V65.9717H44.0431V63.4704H42.946C42.7956 64.5235 42.4991 65.4388 42.1088 65.9717H41.9506V67ZM43.7422 65.9717H42.4585V65.9631C42.7345 65.5307 43.0432 64.7713 43.1859 63.7303H43.7422V65.9717ZM46.18 66.2361H46.879C47.472 66.2361 47.789 65.9172 47.789 65.4514C47.789 65.1028 47.5697 64.8469 47.2693 64.7798V64.7713C47.4886 64.6749 47.6224 64.4524 47.6224 64.1708C47.6224 63.7934 47.3704 63.4704 46.8018 63.4704H46.18V66.2361ZM46.4809 65.9757V64.9519H46.9157C47.2571 64.9519 47.4803 65.1492 47.4803 65.4595C47.4803 65.8289 47.2405 65.9757 46.879 65.9757H46.4809ZM46.4809 64.6915V63.7303H46.7857C47.1672 63.7303 47.322 63.9276 47.322 64.2046C47.322 64.5109 47.1311 64.6915 46.7735 64.6915H46.4809ZM49.7233 66.2361H49.9709L51.2551 64.4816C51.4172 64.2636 51.5354 64.087 51.6287 63.9488H51.6365C51.6326 64.087 51.6287 64.2046 51.6287 64.4231V66.2361H51.9252V63.4704H51.6448L50.41 65.1573C50.2391 65.3924 50.1131 65.5771 50.0237 65.7159H50.0159C50.0198 65.5685 50.0237 65.4469 50.0237 65.2289V63.4704H49.7233V66.2361ZM53.7618 66.2361H54.1032L54.5418 65.3339C54.6639 65.0821 54.7778 64.9852 54.8588 64.9852H55.253V66.2361H55.5495V64.9852H55.9476C56.0292 64.9852 56.1386 65.0821 56.2607 65.3339L56.6993 66.2361H57.0407L56.5694 65.296C56.4434 65.0483 56.3418 64.8888 56.2035 64.8424V64.8343C56.5083 64.6577 56.5411 64.1375 56.671 63.8771C56.7154 63.7893 56.7682 63.7348 56.8698 63.7348C56.9103 63.7348 56.9509 63.7389 56.9997 63.76V63.4744C56.947 63.4533 56.8864 63.4492 56.8336 63.4492C56.6304 63.4492 56.5044 63.5668 56.4272 63.7389C56.2524 64.1334 56.2441 64.7248 55.8094 64.7248H55.5495V63.4704H55.253V64.7248H54.9932C54.5624 64.7248 54.5501 64.1334 54.3753 63.7389C54.2981 63.5668 54.1721 63.4492 53.9689 63.4492C53.9161 63.4492 53.8551 63.4533 53.8023 63.4744V63.76C53.8512 63.7389 53.8917 63.7348 53.9327 63.7348C54.0343 63.7348 54.091 63.7893 54.1315 63.8771C54.2659 64.1375 54.2942 64.6577 54.599 64.8343V64.8424C54.4608 64.8888 54.3592 65.0483 54.2331 65.296L53.7618 66.2361ZM58.8729 66.2361H59.121L60.4047 64.4816C60.5673 64.2636 60.6851 64.087 60.7784 63.9488H60.7867C60.7828 64.087 60.7784 64.2046 60.7784 64.4231V66.2361H61.0753V63.4704H60.795L59.5597 65.1573C59.3892 65.3924 59.2632 65.5771 59.1738 65.7159H59.1655C59.1699 65.5685 59.1738 65.4469 59.1738 65.2289V63.4704H58.8729V66.2361ZM63.1474 66.2361H63.4482V64.4564C63.4482 64.3222 63.4482 64.1289 63.4399 63.9992H63.4482C63.4966 64.1042 63.5743 64.2212 63.6309 64.3055L64.3499 65.4176H64.5087L65.1705 64.3267C65.2233 64.2424 65.3048 64.1042 65.3615 63.9906H65.3698C65.3615 64.1375 65.3615 64.3181 65.3615 64.4604V66.2361H65.6624V63.4704H65.382L64.6791 64.6158C64.5736 64.7924 64.4964 64.9181 64.431 65.0316H64.4232C64.3582 64.9181 64.2888 64.8091 64.175 64.633L63.4277 63.4704H63.1474V66.2361ZM68.9047 66.278C69.6359 66.278 70.2089 65.7325 70.2089 64.8676C70.2089 64.0411 69.6643 63.4492 68.9047 63.4492C68.153 63.4492 67.6005 64.0285 67.6005 64.8676C67.6005 65.7239 68.1574 66.278 68.9047 66.278ZM68.9047 66.0095C68.3073 66.0095 67.9176 65.5519 67.9176 64.8676C67.9176 64.1834 68.3073 63.7177 68.9047 63.7177C69.5382 63.7177 69.8919 64.2172 69.8919 64.8676C69.8919 65.5519 69.5021 66.0095 68.9047 66.0095ZM73.9914 65.8375C73.8088 65.9379 73.6017 66.0095 73.3535 66.0095C72.7439 66.0095 72.3664 65.5433 72.3664 64.8676C72.3664 64.2298 72.7683 63.7177 73.3818 63.7177C73.6544 63.7177 73.8532 63.7853 74.0403 63.8897V63.5961C73.9064 63.5163 73.6622 63.4492 73.3779 63.4492C72.5857 63.4492 72.0494 64.079 72.0494 64.8888C72.0494 65.6987 72.5246 66.278 73.3252 66.278C73.5689 66.278 73.821 66.2235 74.0725 66.0847L73.9914 65.8375ZM76.401 66.2361H76.7014V63.7348H77.4575L77.5547 63.4704H75.6331V63.7348H76.401V66.2361ZM79.2857 66.2361H79.5339L80.8175 64.4816C80.9802 64.2636 81.0979 64.087 81.1912 63.9488H81.1995C81.1956 64.087 81.1912 64.2046 81.1912 64.4231V66.2361H81.4882V63.4704H81.2078L79.9725 65.1573C79.802 65.3924 79.676 65.5771 79.5866 65.7159H79.5783C79.5822 65.5685 79.5866 65.4469 79.5866 65.2289V63.4704H79.2857V66.2361Z" fill="#0A2F4C"/>
    <defs>
        <linearGradient id="paint0_linear_210_78" x1="50.5728" y1="18.2902" x2="65.534" y2="18.2902" gradientUnits="userSpaceOnUse">
            <stop stop-color="#1B88C9"/>
            <stop offset="1" stop-color="#6BBBE9"/>
        </linearGradient>
        <linearGradient id="paint1_linear_210_78" x1="34.6562" y1="18.9762" x2="49.617" y2="18.9762" gradientUnits="userSpaceOnUse">
            <stop stop-color="#21A53E"/>
            <stop offset="1" stop-color="#7CB932"/>
        </linearGradient>
        <linearGradient id="paint2_linear_210_78" x1="18.6992" y1="19.6619" x2="33.6605" y2="19.6619" gradientUnits="userSpaceOnUse">
            <stop stop-color="#E24623"/>
            <stop offset="1" stop-color="#E7721D"/>
        </linearGradient>
    </defs>
</svg>
